<?xml version="1.0" encoding="UTF-8" standalone="no"?>
<svg
   xmlns:dc="http://purl.org/dc/elements/1.1/"
   xmlns:cc="http://creativecommons.org/ns#"
   xmlns:rdf="http://www.w3.org/1999/02/22-rdf-syntax-ns#"
   xmlns:svg="http://www.w3.org/2000/svg"
   xmlns="http://www.w3.org/2000/svg"
   version="1.1"
   id="svg2"
   viewBox="0 0 249.99983 249.99985"
   height="250"
   width="250">
  <defs
     id="defs4" />
  <metadata
     id="metadata7">
    <rdf:RDF>
      <cc:Work
         rdf:about="">
        <dc:format>image/svg+xml</dc:format>
        <dc:type
           rdf:resource="http://purl.org/dc/dcmitype/StillImage" />
        <dc:title></dc:title>
      </cc:Work>
    </rdf:RDF>
  </metadata>
  <g
     transform="translate(0,-802.36256)"
     style="opacity:1"
     id="layer1">
    <path
       id="path4158"
       d="m 167.18624,805.52957 c -0.53449,-0.0492 -1.97489,0.36 -4.88209,1.31312 -2.29797,0.75337 -5.98788,1.52582 -8.19965,1.71602 -4.02142,0.3458 -4.02142,0.34632 -2.2985,-1.10773 1.7229,-1.45405 1.72275,-1.45452 -0.28844,-1.06508 -2.7015,0.5231 -15.49663,5.08295 -18.35439,6.54086 -1.25738,0.64148 -2.79929,1.1661 -3.42531,1.1661 -0.62604,0 -1.27803,0.22786 -1.45004,0.50616 -0.17201,0.27831 -0.89925,0.64158 -1.61501,0.80695 -0.71578,0.16536 -2.2058,0.57507 -3.31196,0.91133 -1.71236,0.52052 -1.86178,0.4982 -1.0056,-0.15152 0.55307,-0.41971 1.0056,-0.91076 1.0056,-1.0909 0,-0.46806 -2.96685,0.4469 -4.93596,1.52187 -1.67198,0.91276 -1.67226,0.91204 0.33894,0.55779 1.10615,-0.19486 1.8819,-0.21286 1.72388,-0.0404 -0.27248,0.29733 -8.20546,4.72886 -13.79104,7.70359 l -2.58582,1.37709 2.07628,-1.8855 c 4.53318,-4.11573 6.47078,-5.61944 7.2412,-5.61944 0.4432,0 0.66125,-0.23465 0.48372,-0.52189 -0.17752,-0.28723 0.47344,-1.19227 1.44666,-2.01119 1.70356,-1.43342 1.71926,-1.48968 0.4321,-1.4837 -2.18288,0.0102 -6.90874,1.64054 -9.25126,3.19075 -2.90527,1.92261 -4.88445,2.6504 -5.31418,1.95507 -0.55515,-0.89825 -3.702751,1.06381 -8.009981,4.99208 -2.199867,2.00632 -4.203878,3.64754 -4.453358,3.64754 -0.98637,0 -0.36163,-1.29813 1.398406,-2.90568 2.717076,-2.48167 1.368099,-2.06423 -3.096474,0.95845 -2.152714,1.45745 -4.287504,2.50668 -4.74516,2.33105 -0.457661,-0.17562 -1.5596,0.23385 -2.448898,0.9102 -3.384034,2.57377 -12.645916,11.14129 -15.649604,14.47678 -8.196534,9.10195 -11.764679,12.38591 -13.456588,12.38591 -1.873743,0 -7.275988,3.25148 -7.275982,4.37928 0,0.49967 0.789577,0.70927 2.442164,0.6487 2.388373,-0.0875 5.088935,0.33316 6.080718,0.94612 0.273224,0.16886 2.151707,0.3465 4.175015,0.39505 2.023312,0.0486 4.570655,0.4997 5.66097,1.00223 1.090314,0.50252 3.056842,0.86631 4.369186,0.80919 2.057055,-0.0895 2.478676,0.1009 3.061681,1.38045 0.535046,1.17427 0.982209,1.42584 2.141387,1.20424 0.924867,-0.17679 1.577177,0.0114 1.768769,0.51066 0.627125,1.63426 2.054545,0.46691 2.691323,-2.20086 0.245974,-1.03049 1.063146,-1.88373 2.419713,-2.52746 1.126251,-0.53444 2.865337,-1.98911 3.865267,-3.23341 1.723679,-2.14487 3.678985,-3.31717 7.581259,-4.54538 2.876639,-0.9054 12.436737,-0.66379 15.282597,0.38607 4.07594,1.50364 7.55308,2.08775 8.24455,1.38495 0.42742,-0.43445 0.3099,-0.83694 -0.39842,-1.36025 -1.33037,-0.9829 -1.29444,-1.14298 0.71828,-3.20197 2.22061,-2.27164 2.17358,-2.87313 -0.22559,-2.87313 -1.2899,0 -2.07437,-0.32464 -2.31759,-0.95846 -0.59481,-1.55006 0.2583,-1.7543 5.41631,-1.29965 2.68638,0.23679 6.23799,0.28911 7.89214,0.11672 2.08168,-0.21694 3.29575,-0.0741 3.94495,0.46464 2.21598,1.83912 6.93786,2.55125 6.40956,0.96632 -0.18373,-0.55119 -2.09872,-1.26528 -7.18508,-2.67898 -4.67548,-1.29948 -2.52363,-4.08162 3.82262,-4.94157 1.7075,-0.23137 3.90544,-0.75406 4.88432,-1.1616 1.39407,-0.58037 3.83472,-0.62388 11.26134,-0.20201 5.21473,0.29623 10.02477,0.40511 10.68896,0.24242 0.66418,-0.16269 1.38895,-0.11384 1.61052,0.10775 0.63669,0.63664 4.57646,0.63904 5.37478,0.004 0.39761,-0.31665 1.81981,-0.42761 3.16045,-0.24579 5.40325,0.73279 14.14312,2.08915 17.66529,2.74182 2.05429,0.38068 7.74308,0.7415 12.64179,0.80134 4.89869,0.0598 10.84608,0.41868 13.21641,0.79796 2.37034,0.37928 5.86119,0.94529 7.75746,1.257 4.38722,0.72119 13.39448,0.92215 15.08396,0.33669 3.30217,-1.14431 0.44401,-1.93283 -8.76306,-2.41747 -3.16045,-0.16635 -8.59067,-0.68345 -12.06716,-1.14925 -3.4765,-0.46579 -10.45821,-1.36605 -15.51492,-1.99997 -5.05673,-0.63393 -11.65057,-1.56169 -14.65299,-2.06283 -3.00243,-0.50114 -7.7862,-1.01115 -10.63059,-1.13242 -6.00497,-0.25601 -4.45947,-0.24911 -18.53172,-0.0763 -10.05747,0.12349 -11.06104,0.0474 -11.06157,-0.83613 -9.8e-4,-1.50884 -0.70427,-1.65516 -6.00102,-1.24802 -3.50647,0.26953 -5.2827,0.67842 -6.1245,1.40851 -1.60664,1.39342 -4.47492,1.97921 -5.31418,1.08528 -0.50096,-0.5336 -0.47959,-0.77112 0.0887,-0.97867 0.4127,-0.15072 1.05915,-0.64481 1.43657,-1.09762 1.79315,-2.15137 2.2997,-2.50726 3.56672,-2.50726 0.74889,0 1.52182,-0.25858 1.71716,-0.57462 0.21112,-0.34161 -0.46721,-0.57463 -1.67226,-0.57463 -1.38766,0 -1.93883,-0.22657 -1.74745,-0.71829 0.46993,-1.20738 3.07931,-2.09147 5.17164,-1.75194 2.2275,0.36148 2.64632,1.58805 0.71492,2.09313 -2.64481,0.69163 -0.44626,0.96453 3.34563,0.41525 5.18614,-0.75124 16.91139,-1.89504 20.90766,-2.03925 7.24151,-0.26131 28.55231,-2.14535 29.8806,-2.64193 0.91957,-0.34379 -2.90616,-0.41144 -10.63059,-0.18743 -17.00065,0.49303 -19.6232,0.65942 -20.874,1.32883 -0.61598,0.32966 -2.39781,0.438 -4.03025,0.24466 -1.61634,-0.19143 -3.6427,-0.071 -4.52631,0.26823 -0.87978,0.33776 -3.89242,0.78611 -6.69462,0.99662 -4.1168,0.30926 -5.04597,0.23467 -4.83944,-0.38496 0.36561,-1.09681 11.47963,-4.13905 21.79542,-5.96624 15.74262,-2.78841 17.43297,-3.04386 24.38236,-3.69355 7.23993,-0.67684 17.95888,-2.19941 18.6967,-2.65539 1.1678,-0.72175 9.45714,-1.5314 14.5138,-1.41749 3.9865,0.0898 5.5548,-0.0585 5.28164,-0.50055 -0.49078,-0.79406 -17.89134,-0.82231 -23.59337,-0.0381 -3.91761,0.53874 -14.11933,1.71113 -24.83353,2.85406 -2.91299,0.31072 -7.56747,0.96788 -10.34328,1.46012 -2.77581,0.49225 -8.66722,1.52057 -13.09184,2.28505 -4.42463,0.76446 -9.85485,2.02084 -12.06717,2.79233 -4.61512,1.60939 -14.12028,5.54768 -16.66417,6.9045 -1.96574,1.04843 -3.07698,1.14349 -4.30521,0.367 -0.70775,-0.44745 -0.4564,-0.95686 1.43657,-2.91355 1.26192,-1.3044 3.58692,-3.02759 5.16715,-3.82935 1.58022,-0.80174 4.05157,-2.31699 5.49262,-3.36694 2.75963,-2.0107 11.73286,-5.76792 24.67528,-10.33207 9.39783,-3.31414 12.39375,-4.56475 12.89992,-5.38376 0.2114,-0.34203 0.21632,-0.53614 -0.10437,-0.56565 z m -39.91299,26.99175 c 1.38072,0.0361 1.42348,0.0932 0.3973,0.53422 -1.59644,0.68601 -2.7225,0.68601 -2.29851,0 0.19532,-0.31604 1.05074,-0.55646 1.90121,-0.53422 z m -7.90112,8.579 c 0.61344,0 1.11558,0.25858 1.11558,0.57463 0,0.31604 -0.66147,0.57462 -1.47023,0.57462 -0.83399,0 -1.31701,-0.24872 -1.11559,-0.57462 0.19533,-0.31605 0.8568,-0.57463 1.47024,-0.57463 z m 23.41156,0.7194 c -0.49978,0.003 -0.89227,0.0281 -1.13916,0.0775 -0.98086,0.19616 -2.11381,0.80834 -2.51736,1.36024 -0.62703,0.85751 -0.99231,0.90531 -2.51063,0.33221 -1.49166,-0.56303 -1.9307,-0.51706 -2.73621,0.28731 -0.89588,0.89462 -0.76791,0.98213 1.9158,1.31423 3.06136,0.37884 5.37814,1.34475 5.37814,2.2424 0,0.30068 0.84039,0.94831 1.86754,1.43881 1.02715,0.49049 2.77257,1.39276 3.87873,2.00558 1.10617,0.61281 2.46586,1.01449 3.0224,0.89224 1.9758,-0.434 15.1676,2.46925 22.5485,4.96289 0.94813,0.32033 3.92182,1.18049 6.60821,1.91132 2.68638,0.73081 5.66007,1.34606 6.60821,1.36697 1.67641,0.037 1.64605,-0.0122 -1.08304,-1.79683 -1.54351,-1.00932 -2.54644,-1.92219 -2.22893,-2.02803 0.5545,-0.18483 2.68275,0.24426 13.36793,2.69694 11.83353,2.71625 8.40187,0.71243 -8.33208,-4.86525 -6.00485,-2.00151 -12.08153,-4.15685 -13.50373,-4.79006 l -2.58582,-1.1515 3.73507,-0.0157 c 2.05428,-0.009 4.89868,0.23333 6.3209,0.53647 9.74286,2.07671 19.2163,3.20793 21.30719,2.5443 1.10941,-0.35211 1.16126,-0.48193 0.36588,-0.92704 -1.2179,-0.68158 -13.56164,-2.20847 -17.90097,-2.21433 -2.33033,-0.003 -4.23498,-0.40401 -6.01787,-1.2671 -2.08007,-1.00694 -3.83535,-1.29696 -8.65756,-1.42871 -6.28635,-0.17176 -13.67274,-1.12705 -14.66756,-1.89671 -0.79422,-0.61447 -9.54516,-1.61265 -13.04358,-1.58809 z m -30.25883,2.72836 c 0.67505,0 1.06245,0.30144 0.92367,0.71828 -0.27322,0.82057 -1.73268,1.23585 -2.31085,0.65768 -0.62587,-0.62587 0.13053,-1.37596 1.38718,-1.37596 z m 33.78739,0 c 0.65074,0 1.18291,0.25858 1.18292,0.57463 0,0.31604 -0.37286,0.57462 -0.82827,0.57462 -0.45541,0 -0.98759,-0.25858 -1.18293,-0.57462 -0.19533,-0.31605 0.17754,-0.57463 0.82828,-0.57463 z m 16.16138,4.66098 c 0.61155,0.048 1.87266,0.30119 4.27154,0.79797 0.94813,0.19636 2.30568,0.47577 3.01679,0.62064 0.7111,0.14487 1.29291,0.51713 1.29291,0.82716 0,0.83602 -2.94731,0.64451 -4.59701,-0.29854 -0.79012,-0.45168 -2.00337,-0.83054 -2.69581,-0.84175 -0.69245,-0.0112 -1.44059,-0.31376 -1.66216,-0.67226 -0.20038,-0.32423 -0.23782,-0.48121 0.37374,-0.43322 z m -44.65255,0.0191 c -0.49345,-0.0191 -0.78113,0.26103 -0.78113,0.77889 0,0.55206 0.37164,0.86821 0.89225,0.7598 1.24814,-0.25988 1.32457,-1.27963 0.11335,-1.51288 -0.0786,-0.0151 -0.15398,-0.0231 -0.22447,-0.0258 z m -10.00882,0.49157 c 1.56156,0 2.99878,0.25858 3.19411,0.57463 0.22049,0.35676 -0.85622,0.57463 -2.83946,0.57463 -1.7569,0 -3.19412,-0.25858 -3.19412,-0.57463 0,-0.31605 1.27789,-0.57463 2.83947,-0.57463 z m 39.37428,5.27377 c -0.28238,-0.0281 -0.266,0.16492 -0.266,0.46465 0,0.76867 3.71552,3.06166 7.82705,4.82932 6.70336,2.88197 5.15661,0.92743 -2.19638,-2.77549 -3.59349,-1.80965 -4.89404,-2.47178 -5.36467,-2.51848 z m -57.031712,2.55665 c -1.236884,0.10244 -5.293979,3.2511 -5.293974,4.33887 0,0.62865 0.227237,1.05708 0.505041,0.95173 1.129894,-0.42847 5.30238,-4.60659 5.12675,-5.13348 -0.04155,-0.12457 -0.161119,-0.17177 -0.337817,-0.15712 z m 11.681082,2.06618 c -0.54278,-0.009 -0.96201,0.10528 -1.12793,0.37373 -0.23806,0.38519 -1.374025,0.48299 -3.01454,0.25813 -2.131739,-0.29218 -2.736871,-0.17436 -3.181777,0.62065 -0.439238,0.78488 -0.717245,0.84257 -1.384939,0.28843 -1.061037,-0.88058 -3.166976,0.12903 -3.977493,1.90682 -0.30454,0.66797 -1.070466,1.49423 -1.702555,1.83611 -2.228052,1.20516 -2.730449,3.12754 -0.939383,3.59591 0.605214,0.15827 1.37326,1.19861 1.762041,2.3883 0.378875,1.15937 0.822687,2.43093 0.986514,2.82599 0.193298,0.46614 -0.222949,0.71828 -1.186289,0.71828 -0.816446,0 -1.480473,0.19394 -1.474728,0.43097 0.01695,0.70443 4.07696,3.83618 7.315268,5.64302 3.051343,1.70251 3.851333,2.70218 2.012323,2.51511 -3.128661,-0.31825 -3.200672,0.93636 -0.117849,2.04936 2.515986,0.90835 4.402727,1.01692 4.858517,0.27945 0.19532,-0.31603 2.25771,-0.57462 4.58355,-0.57462 2.32583,0 4.63805,-0.15721 5.13796,-0.34905 1.59789,-0.61316 0.97421,-1.43027 -0.95845,-1.25586 -2.04751,0.18476 -2.93986,-0.86594 -0.99326,-1.16947 0.66394,-0.10352 1.34244,-0.62068 1.50839,-1.14925 0.16596,-0.52856 0.93492,-2.31915 1.70818,-3.97973 1.40462,-3.01648 1.27289,-4.86595 -0.38496,-5.41856 -0.33904,-0.11301 -0.67587,-1.8451 -0.74859,-3.84955 -0.12343,-3.4029 -0.24418,-3.70215 -1.83161,-4.51172 -0.93508,-0.47687 -2.23034,-1.34944 -2.87763,-1.93824 -0.98773,-0.89849 -2.77664,-1.51508 -3.97076,-1.53421 z m -79.364706,1.02131 c -3.541155,0 -15.2917899,8.68483 -16.5216462,12.21082 -0.2580538,0.73985 -0.04695,1.0056 0.8002137,1.0056 0.960328,0 1.052785,0.18409 0.5566698,1.11109 -1.0495268,1.96106 -0.7094636,2.36689 1.2727059,1.5185 2.6810478,-1.14751 8.4710108,-2.70426 10.4869388,-2.81926 3.000581,-0.17118 17.213814,0.85785 17.813437,1.28954 0.316033,0.22754 2.126119,0.88089 4.022387,1.45115 1.896269,0.57028 4.352793,1.42595 5.458955,1.90233 2.511992,1.08184 9.469505,3.50416 11.822487,4.11554 0.971774,0.25251 2.91114,1.1301 4.309701,1.9506 2.808511,1.64768 9.151385,7.10421 9.151385,7.87306 0,0.26834 -1.422201,0.90206 -3.160447,1.40739 -1.738251,0.50531 -3.160447,1.04045 -3.160447,1.18964 0,0.44671 5.610368,0.30897 13.820222,-0.33893 6.918076,-0.54595 8.165223,-0.81524 11.894327,-2.57459 2.291325,-1.08103 4.166039,-2.20574 4.166039,-2.49941 0,-0.81265 -3.492307,-3.58209 -5.665459,-4.49264 -3.984583,-1.66954 -10.931321,-3.09523 -17.49245,-3.59029 -4.707877,-0.35524 -8.484715,-1.03445 -12.354476,-2.22107 -9.238073,-2.83275 -11.931274,-3.54877 -13.340984,-3.54877 -1.722478,0 -4.786601,-0.94707 -7.902244,-2.44217 -2.291067,-1.0994 -2.392448,-1.24467 -1.534208,-2.19301 0.724495,-0.80056 0.783342,-1.26959 0.278338,-2.2132 -0.913525,-1.70695 -4.181582,-1.64769 -5.346724,0.0965 -0.852235,1.27579 -0.879283,1.27882 -2.080775,0.19865 -1.257221,-1.13025 -1.638043,-2.64081 -0.665539,-2.64081 0.545884,0 2.020894,-4.51436 1.609402,-4.92586 -0.284629,-0.28463 -5.081412,2.03739 -6.245699,3.02353 -0.566897,0.48016 -0.818171,1.32746 -0.652062,2.19638 0.290151,1.51784 -0.888805,2.39473 -2.426454,1.80469 -0.690604,-0.26502 -0.725024,-0.66186 -0.19304,-2.21659 0.356372,-1.04145 0.825463,-2.02263 1.042637,-2.18066 0.804402,-0.58529 1.001052,-3.44776 0.236809,-3.44776 z m -4.778832,3.60938 c 0.546476,0.0747 0.692799,0.92216 0.739608,2.84282 0.05649,2.31659 -0.03713,2.46489 -1.664401,2.64756 -0.948134,0.10642 -1.931292,0.55895 -2.18403,1.00559 -0.497253,0.87877 -1.135951,1.03686 -1.742957,0.42985 -0.728507,-0.72851 -0.378255,-1.34117 0.76654,-1.34117 0.928895,0 1.149254,-0.38286 1.149254,-1.99773 0,-1.50362 0.359888,-2.23447 1.454523,-2.95169 0.681813,-0.44674 1.153576,-0.68004 1.481463,-0.63523 z m 26.858189,0.40964 c -0.443526,0.0604 -0.352781,0.3857 0.241303,0.97979 0.536834,0.53684 3.113742,1.42163 5.726064,1.96741 5.205992,1.0877 12.248021,1.38736 12.76973,0.54321 0.59917,-0.96947 -0.901296,-1.33704 -7.372508,-1.80917 -3.517003,-0.2566 -7.297599,-0.7399 -8.40167,-1.07294 -1.541746,-0.46507 -2.519393,-0.66868 -2.962919,-0.6083 z m 128.955449,1.15262 c -1.68813,0 0.7055,1.90207 9.21985,7.32649 3.37402,2.14957 4.50268,2.40066 2.927,0.65206 -1.46056,-1.62082 -11.13989,-7.97855 -12.14685,-7.97855 z m -92.881907,1.36923 c -0.582781,-0.0665 -1.057618,0.84046 -0.647576,1.50391 0.195327,0.31604 0.598216,0.57462 0.895608,0.57462 0.699217,0 0.703418,-1.55515 0.0057,-1.9865 -0.0854,-0.0527 -0.170389,-0.0825 -0.253641,-0.092 z m -13.357833,0.92928 c -0.474049,0 -0.701492,0.25858 -0.506159,0.57463 0.195327,0.31604 0.742521,0.57462 1.216588,0.57462 0.47405,0 0.702613,-0.25858 0.507292,-0.57462 -0.195333,-0.31605 -0.743654,-0.57463 -1.217721,-0.57463 z m 85.62276,2.77325 c -0.10376,0.002 -0.14489,0.0554 -0.10887,0.16498 0.14412,0.43827 1.12104,1.37866 2.17057,2.08975 1.80679,1.2242 2.88773,1.61023 2.88773,1.03254 0,-0.14285 -1.19695,-1.08323 -2.6599,-2.08976 -1.09721,-0.7549 -1.97827,-1.20447 -2.28953,-1.19751 z m 10.23553,1.33331 c -0.47358,-0.0353 -0.63123,0.12038 -0.39281,0.50616 0.20058,0.32453 2.47932,1.6487 5.06278,2.94272 5.1686,2.5889 14.7491,8.67222 18.75057,11.90668 1.40843,1.13846 6.06291,4.45281 10.34328,7.36465 4.28037,2.91183 8.16335,5.30718 8.6295,5.32315 1.33845,0.0458 -7.19341,-8.23884 -13.20182,-12.81911 -7.06287,-5.38411 -25.87636,-14.97748 -29.1915,-15.22425 z M 9.9393982,872.70482 c 0.4740498,0 0.7026128,0.25858 0.5072858,0.57463 -0.195327,0.31605 -0.7436472,0.57463 -1.2177142,0.57463 -0.4740493,0 -0.7014927,-0.25858 -0.5061656,-0.57463 0.1953271,-0.31605 0.742527,-0.57463 1.216594,-0.57463 z m 168.7416218,0.0988 c -0.10208,-0.007 -0.156,0.0234 -0.156,0.0942 0,0.12059 1.46118,1.2246 3.24687,2.45452 1.78568,1.22991 3.95015,2.75394 4.81025,3.38602 4.33149,3.18324 8.95997,6.48508 11.07503,7.90112 2.94074,1.96884 3.54233,2.00627 1.2671,0.0785 -6.26668,-5.30946 -18.71202,-13.80795 -20.24325,-13.9145 z m -61.13042,3.38715 c -0.12672,-0.0424 -0.42791,0.22895 -1.02692,0.77104 -0.66431,0.6012 -1.20761,1.33039 -1.20761,1.62062 0,1.20916 2.02678,0.0323 2.21321,-1.28505 0.1003,-0.70873 0.14806,-1.06426 0.0213,-1.10661 z M 4.1452321,876.47368 c 0,0 -0.2545048,0.8385 -0.4077635,1.59017 -0.2137899,1.0486 -0.1342099,1.42601 0.225587,1.06621 0.3064197,-0.30644 0.7819406,-1.25502 0.6575918,-1.84168 -0.062795,-0.29625 -0.4754153,-0.8147 -0.4754153,-0.8147 z m 90.1879819,1.46334 c 0.06495,-0.0135 0.142852,-0.0129 0.233442,0 0.362377,0.0516 0.937717,0.316 1.786736,0.80134 0.790115,0.45168 1.177989,0.79502 0.861941,0.76318 -1.904784,-0.1919 -3.160451,-0.62549 -3.160451,-1.09089 0,-0.27334 0.08347,-0.43308 0.278332,-0.47363 z m 35.650436,2.9764 c -0.63659,0.0202 -1.45548,0.0924 -2.54655,0.18855 -5.37406,0.47347 -6.84668,0.99238 -7.45106,2.62622 -0.38829,1.04962 -1.20719,1.39667 -4.68119,1.98201 -2.55919,0.43121 -4.79111,1.18113 -5.69127,1.91243 -0.81452,0.66173 -2.27694,1.56859 -3.25024,2.01569 -0.97329,0.4471 -2.12085,1.23608 -2.5499,1.75306 -1.76821,2.13055 -6.966231,3.98552 -12.844934,4.58242 -0.591555,0.06 -1.316131,0.53767 -1.609404,1.06171 -0.664986,1.18827 -2.774372,1.25739 -2.774366,0.091 0,-1.0073 -1.229357,-1.09171 -4.026882,-0.27721 -1.402859,0.40842 -2.366589,0.39432 -3.20085,-0.0448 -0.867795,-0.45689 -2.044637,-0.45021 -4.3097,0.0247 -1.713762,0.3593 -3.891304,0.79997 -4.839432,0.97866 -0.94814,0.17868 -1.989157,0.53409 -2.313103,0.79011 -0.323946,0.25602 -2.004729,0.62882 -3.735074,0.82827 -3.359303,0.38722 -8.030186,1.84355 -8.03018,2.50389 0,0.21966 0.528404,0.85244 1.173939,1.40514 0.645537,0.55273 1.052005,1.20073 0.903469,1.44107 -0.474487,0.76775 -16.875554,0.80385 -17.348788,0.0381 -0.232809,-0.3767 0.004,-0.98852 0.530858,-1.37372 1.573443,-1.15052 1.18114,-2.57909 -0.708181,-2.57909 -1.169464,0 -1.968965,-0.46548 -2.713767,-1.58022 -0.580701,-0.86912 -0.986572,-1.8109 -0.901223,-2.09312 0.239879,-0.79323 -6.885292,0.11356 -11.08513,1.41076 -11.165838,3.44877 -19.9198467,9.66819 -19.1602189,13.61259 0.1457946,0.75708 0.8709625,0.90742 3.9135249,0.81255 4.02437,-0.12547 9.086608,-0.81631 16.37687,-2.23453 8.17537,-1.59041 9.757311,-1.78304 10.314096,-1.25363 0.887443,0.84381 3.304081,0.59393 4.471315,-0.46239 1.389959,-1.25791 2.951812,-0.40153 3.209831,1.75867 0.229541,1.92173 1.953984,2.04136 3.295128,0.22895 0.920139,-1.24347 0.944147,-1.16107 0.611662,2.15485 -0.190133,1.89627 -0.724001,4.48209 -1.186289,5.74628 -0.462293,1.26417 -0.838455,2.94495 -0.835006,3.73507 0.0046,1.06584 0.305856,0.69513 1.16833,-1.43657 1.891063,-4.67393 4.142134,-6.53246 3.558871,-2.93823 -0.173738,1.07063 -0.03563,2.42818 0.306397,3.01679 0.546982,0.94134 0.623251,0.95345 0.638594,0.0988 0.02902,-1.61243 1.064823,-1.74002 1.858561,-0.22896 0.671481,1.27835 0.755795,0.95338 0.8552,-3.27042 0.08747,-3.71658 0.319108,-4.84177 1.115587,-5.42417 0.552779,-0.4042 1.186328,-0.73512 1.407387,-0.73512 0.507425,0 1.182996,3.55605 1.282808,6.75188 0.05258,1.68309 0.327906,2.44216 0.886632,2.44216 0.65492,0 0.739119,-0.74537 0.435459,-3.87873 -0.761508,-7.85755 -0.958467,-7.10292 2.049354,-7.87531 1.849339,-0.47491 3.013717,-0.50865 3.726093,-0.10999 0.569943,0.31896 2.392504,0.64733 4.050447,0.73063 3.415024,0.17157 7.802144,1.91415 9.932516,3.94495 0.790111,0.75317 2.125084,1.72406 2.96628,2.15822 2.583574,1.33342 8.526244,7.18796 8.526255,8.39942 0,0.62227 1.05548,2.25203 2.345644,3.62172 4.013984,4.26137 5.98513,9.13594 5.770958,14.27028 -0.09796,2.34917 0.772302,9.76777 2.182902,18.6069 0.67043,4.20104 2.02787,5.97986 1.58695,2.07966 -1.07455,-9.5053 -2.71127,-21.97516 -2.93036,-22.32964 -0.14368,-0.23248 -0.0506,-0.76358 0.20651,-1.17955 0.64668,-1.04637 -0.8115,-6.25111 -2.167204,-7.73614 -1.592273,-1.74418 -2.973023,-4.66763 -2.973014,-6.29396 0,-0.76711 -0.383753,-1.71382 -0.852961,-2.10322 -1.215606,-1.00887 -3.449664,-5.66469 -2.955065,-6.15929 0.673996,-0.674 2.348336,0.7061 2.658776,2.19189 0.603211,2.88703 2.822918,4.74091 4.995429,4.17278 0.887239,-0.23202 1.818849,0.48315 3.971879,3.0471 1.54693,1.84215 3.01217,3.43671 3.25585,3.54427 0.98648,0.43545 2.44367,4.23756 4.551,11.87189 2.83607,10.27436 3.97537,16.99322 3.53081,20.82123 -0.22132,1.90582 -0.10885,3.29645 0.3064,3.7968 1.92185,2.3157 3.98466,17.0424 2.38716,17.0424 -0.30875,0 -0.98602,-0.64732 -1.50391,-1.43769 -0.51786,-0.79036 -1.5987,-1.76005 -2.40287,-2.15485 -2.26434,-1.11164 -3.56419,-3.31547 -3.96853,-6.72941 -0.26239,-2.21551 -0.76096,-3.48503 -1.71377,-4.36807 -0.73866,-0.68456 -1.3423,-1.65218 -1.34229,-2.15035 0,-0.4982 -0.25859,-1.06504 -0.57463,-1.26037 -0.69942,-0.43227 -0.7002,-0.29796 -0.0337,4.02239 0.29254,1.89627 0.67962,5.83934 0.86081,8.76306 0.31914,5.14979 0.28422,5.35571 -1.1111,6.56893 -1.1063,0.96191 -1.43993,1.80712 -1.43993,3.64529 0,2.77284 -1.78686,5.03683 -3.01005,3.81363 -1.06233,-1.06232 -0.7107,-9.93384 0.65655,-16.56092 0.66228,-3.21011 1.20424,-6.37773 1.20425,-7.03918 0,-2.46926 -1.13614,-1.07351 -2.17954,2.67673 -2.689363,9.6663 -3.529632,14.50296 -3.867509,22.26678 -0.455736,10.4722 -0.749226,11.3465 -3.102087,9.2468 -0.790905,-0.7059 -1.137405,-0.6137 -2.705906,0.7183 -1.825652,1.5503 -3.932562,6.0399 -8.939263,19.0536 -1.221793,3.1757 -2.670428,6.6465 -3.334409,8.0055 0.07419,0.061 0.146926,0.1241 0.230075,0.1739 1.716812,1.0301 2.015807,-0.02 3.483675,1.7418 0.558318,2.0431 2.163309,2.7137 3.44776,4.0258 0.734443,-1.3855 1.466017,-2.3801 1.709291,-2.3815 0.152972,0 0.113184,0.3889 -0.239056,1.3153 -0.601669,1.2495 -0.753043,2.6926 0.843988,2.3984 0.790112,-0.1983 1.436567,-0.2095 1.436567,-0.025 -0.40845,3.0338 1.118213,2.1958 2.088631,3.3737 0.242142,0.4842 -0.27027,2.0517 0,2.3221 0.273631,0.2736 0.886845,-0.2737 1.160477,0 1.858766,0.043 0.7582,2.9057 1.741833,2.9023 0.788942,0.8623 2.028526,1.2128 2.778865,2.2514 0.435641,-0.8248 0.903825,-1.6692 1.423098,-2.5444 1.03149,-1.7382 2.21133,-4.0655 2.62173,-5.1716 l 0.74635,-2.0112 0.0404,2.0112 c 0.0223,1.1061 -0.58022,4.0225 -1.33893,6.4814 -0.20265,0.6567 -0.37403,1.2776 -0.52299,1.8697 0.2864,-0.019 0.54965,-0.028 0.63634,0.016 0.24475,0.1224 0.3355,0.4579 0.58025,0.5803 0.34611,0.173 1.1616,-0.3869 1.1616,0 l 3.48255,0 c 0.3323,0 1.97296,0.034 3.22217,0.036 1.18993,-2.8654 2.49866,-5.4131 3.23565,-5.8686 0.0609,-0.037 0.11525,-0.063 0.16273,-0.075 0.0446,-0.012 0.0829,-0.013 0.1156,0 0.41019,0.1285 -0.11332,1.9944 -1.49604,5.3827 0.44608,-0.4537 0.97977,-1.0505 1.14476,-1.2155 2.7099,-1.7135 3.70719,-5.6351 5.80463,-6.9652 2.88618,-0.9283 5.18402,-2.5904 7.54534,-4.0627 0.96315,-0.3957 1.13353,-0.9745 1.3479,-1.9236 0.52342,-3.0694 2.66404,-8.0449 3.46124,-8.0449 0.39006,0 1.13966,-0.1652 1.66551,-0.3669 0.94935,-0.3643 0.97766,-0.4653 0.15263,6.0784 5.37468,-3.9336 8.46234,-0.9384 11.36796,-5.6116 1.00381,-1.0037 2.75968,-2.924 4.0628,-3.4825 1.92977,-0.06 4.76576,-1.0437 4.64415,-2.3221 2.06596,-1.0244 6.98168,-1.3794 8.12558,-3.4825 4.82427,-0.078 8.48264,2.2492 12.62507,1.2334 0.32399,0 1.91103,-1.8299 4.78881,-1.2334 2.18342,2.8707 2.79563,3.5607 5.80463,4.6441 1.95679,2.1113 5.50694,2.9087 8.12671,2.9023 l 2.32208,0 1.87314,0 c -0.25033,-0.3788 -0.54295,-0.8882 -0.85296,-1.5264 -0.69808,-1.4368 -0.87134,-2.2013 -0.68574,-2.2502 0.18562,-0.048 0.73033,0.6184 1.46799,2.0449 0.32209,0.6228 0.55356,1.2633 0.65545,1.7317 l 3.34674,0 c 1.53323,0.5146 2.81491,-0.6223 4.0628,-0.5813 3.6876,-0.054 1.40029,-3.7267 2.9573,-4.0987 0.41142,0 1.45638,1.1985 2.5746,2.8057 0.0558,-0.1798 0.12332,-0.3481 0.27272,-0.4478 0.32127,-0.2141 1.93655,0.1928 2.32207,0 0.24475,-0.1224 0.33551,-0.4579 0.58024,-0.5802 1.88236,-0.1972 3.84927,-0.5569 4.77852,-1.6074 1.25878,0.1374 5.07987,-0.6263 5.09003,-0.7147 0.85456,-0.049 1.18344,0.065 1.74072,-0.5802 0.15555,-0.078 1.10427,-0.023 1.52635,-0.01 -1.07944,-0.8476 -2.18289,-1.6727 -3.30074,-2.4612 -3.42604,-2.4165 -4.98761,-4.1784 -4.30633,-4.8597 0.0454,-0.045 0.11078,-0.073 0.19528,-0.082 1.13772,-0.1251 5.68585,2.9501 10.2333,6.8832 0.10343,0 0.20386,-0.01 0.29629,-0.054 0.24473,-0.1224 0.33549,-0.4578 0.58023,-0.5802 0.17306,-0.087 0.40718,0.087 0.58024,0 1.14428,-1.0869 3.94991,-1.2609 5.80463,-1.1605 3.53607,2.43 3.80528,2.0675 4.06279,2.3221 1.17218,1.3982 2.21903,1.9178 4.06391,2.3209 2.12098,1.414 -0.62282,0.8502 1.16048,1.7419 0.24606,0.123 0.55313,-0.012 0.835,-0.04 -1.29158,-2.7168 -2.88926,-5.4893 -3.84617,-6.6105 -1.1325,-1.3268 -3.07329,-3.6852 -4.31195,-5.2401 -2.96976,-3.7281 -6.71616,-6.8173 -7.24008,-5.9695 -0.26064,0.4217 -1.95199,-0.4081 -4.88545,-2.3985 -3.21982,-2.1846 -5.22959,-4.09236 -7.1211,-6.75747 -1.44948,-2.0423 -3.37342,-4.57221 -4.27603,-5.62169 -0.98383,-1.14392 -1.50291,-2.27002 -1.29516,-2.81141 0.1906,-0.4967 -0.0197,-1.26883 -0.468,-1.71715 -0.6269,-0.62689 -0.6865,-1.28134 -0.25814,-2.83273 0.68181,-2.46927 0.49731,-2.81237 -4.01902,-7.48361 -3.93164,-4.0665 -5.60343,-4.77264 -5.07288,-2.14363 0.17539,0.86913 0.49421,2.03275 0.70819,2.58582 0.27489,0.71058 0.10856,1.0056 -0.56678,1.0056 -1.67904,0 -5.32664,-10.51877 -3.94831,-11.38591 0.41654,-0.26207 0.47696,-1.35705 0.1807,-3.26707 -0.24512,-1.58023 -0.23385,-2.95278 0.0247,-3.05046 1.1733,-0.44342 -2.87102,-8.25495 -5.93258,-11.45887 -3.07508,-3.21809 -5.06427,-2.32294 -3.50387,1.57686 0.78226,1.95506 0.82449,2.64206 0.24466,3.91464 -0.70326,1.54348 -0.70313,1.54433 -1.84733,0.13131 -0.90052,-1.11199 -1.09231,-2.0305 -0.90235,-4.30857 0.19684,-2.36044 -0.28197,-4.43149 -2.59368,-11.2187 -1.55926,-4.57804 -3.48167,-9.42645 -4.27154,-10.77425 -1.80159,-3.07418 -0.94361,-3.13318 2.19077,-0.15151 1.32893,1.26418 2.49332,2.29851 2.58806,2.29851 0.83744,0 -10.25579,-13.50329 -13.26019,-16.14118 -2.85128,-2.50346 -3.18476,-1.71487 -0.68012,1.60716 4.40558,5.8433 4.91901,6.84005 5.84279,11.34439 0.51531,2.51262 1.42021,5.51711 2.0112,6.67554 1.23801,2.42671 2.57278,7.32945 2.11893,7.78328 -0.90044,0.90044 -4.13099,-2.08452 -7.92244,-7.31976 -5.73345,-7.91675 -8.72713,-11.13243 -9.93252,-10.66987 -1.31488,0.50457 -1.18428,2.30643 0.26263,3.61498 0.66571,0.60207 1.71015,2.07367 2.32096,3.27044 0.61079,1.19677 2.39492,4.03346 3.96401,6.30405 2.36581,3.42348 2.79609,4.42933 2.52185,5.89105 -0.24081,1.28366 0.22703,3.03151 1.72164,6.43088 1.1288,2.56735 2.05272,4.98276 2.05273,5.36805 0,0.38529 1.01201,3.05845 2.24911,5.94044 1.23711,2.88197 2.79132,6.92087 3.45338,8.97517 0.66205,2.05429 2.23586,5.36095 3.49715,7.34893 2.3097,3.64047 3.19912,6.47234 1.47584,4.69803 -1.51585,-1.56074 -8.36511,-14.04791 -8.37138,-15.26241 -0.0117,-2.2707 -4.89038,-12.33901 -8.05037,-16.61367 -3.24811,-4.39384 -4.72584,-5.60942 -3.17505,-2.6105 0.48219,0.93243 0.87654,2.23883 0.87654,2.90231 0,0.66348 0.35758,1.90409 0.7946,2.75753 0.80065,1.56357 1.85454,7.58575 1.32769,7.58575 -0.1559,0 -2.0347,-2.39189 -4.17614,-5.3153 -2.14142,-2.92341 -5.01572,-6.49149 -6.38711,-7.92918 -1.79968,-1.88668 -2.95166,-3.88516 -4.1391,-7.18283 -2.50991,-6.97031 -2.85675,-7.7294 -3.53418,-7.7294 -0.66533,0 -0.41943,1.16471 0.95509,4.52294 0.43621,1.06574 0.79457,3.00511 0.79572,4.3097 9.9e-4,1.40362 0.50084,3.18962 1.22332,4.37479 0.79633,1.30629 1.24511,3.0558 1.29067,5.02911 0.0786,3.4059 -0.32518,3.74172 -1.73622,1.44442 -4.67589,-7.61274 -10.96763,-16.76938 -11.53406,-16.7865 -0.89936,-0.0272 -1.88775,1.82551 -1.88774,3.53866 0,1.25122 2.47578,5.16597 8.6194,13.62944 1.42221,1.95922 5.17164,6.40446 8.33209,9.87863 3.16045,3.47417 6.72727,7.92008 7.9258,9.87977 2.44208,3.99295 5.4653,12.8732 5.98758,17.58672 0.4859,4.38538 -0.51251,3.40573 -2.42871,-2.38268 -2.45573,-7.41826 -6.45967,-16.12741 -8.95945,-19.49018 -2.32827,-3.13201 -5.99064,-5.36734 -7.71146,-4.707 -0.47432,0.18203 -1.2471,0.0107 -1.71714,-0.37934 -0.54218,-0.44996 -0.85409,-0.48531 -0.85409,-0.0977 0,0.33609 0.26193,0.7727 0.58249,0.97081 2.01948,1.2481 4.91865,13.39981 3.52856,14.7899 -0.46455,0.46456 -1.50166,-1.20705 -3.85178,-6.20866 -3.96127,-8.43052 -4.11174,-8.6314 -5.51396,-7.36241 -0.58678,0.53102 -1.06621,1.57822 -1.0662,2.32656 0,2.23359 3.56298,10.03017 5.44998,11.92576 4.97649,4.99915 6.60174,8.97242 10.30063,25.17927 0.76622,3.3573 -0.81029,1.3545 -2.48818,-3.1605 -0.96898,-2.60738 -2.64962,-6.55076 -3.73395,-8.76308 -1.08431,-2.2123 -2.39143,-5.05317 -2.90456,-6.31303 -0.51312,-1.25987 -1.39145,-2.81136 -1.95171,-3.44776 -2.11306,-2.4002 -5.7875,-9.30801 -6.38599,-12.00432 -0.34212,-1.54126 -0.88177,-3.28668 -1.19863,-3.87873 -0.72518,-1.35499 -2.58687,-1.39387 -3.38043,-0.0707 -0.55793,0.9303 -0.68867,0.9037 -1.75194,-0.35129 -1.39551,-1.64714 -1.46081,-2.72175 -0.20762,-3.42307 0.87275,-0.48842 0.87275,-0.73037 0,-3.29176 -1.48332,-4.35331 -1.14762,-7.1559 0.85745,-7.1559 0.63386,0 1.32413,-0.58431 1.62511,-1.37596 0.2878,-0.75696 0.76478,-1.46806 1.05947,-1.58023 0.29469,-0.11214 0.71716,-0.78606 0.93826,-1.49716 0.32199,-1.0356 0.17855,-1.29291 -0.71716,-1.29291 -0.69798,0 -1.38301,-0.64072 -1.82376,-1.70481 -0.3884,-0.93766 -1.05764,-1.99709 -1.48708,-2.35349 -1.52213,-1.26326 -1.87014,-0.21791 -0.74298,2.23004 0.62846,1.36486 1.05932,2.73218 0.95734,3.03811 -0.10198,0.30595 -1.99238,-1.22656 -4.20083,-3.40511 -2.20846,-2.17856 -4.53919,-4.23383 -5.17838,-4.56784 -0.63919,-0.33399 -2.43822,-2.8929 -3.99769,-5.68566 -3.01768,-5.40413 -3.47666,-5.93346 -6.61943,-7.61942 -1.10616,-0.59339 -4.29686,-2.78498 -7.09081,-4.87085 -2.79395,-2.08586 -5.41355,-3.79231 -5.82034,-3.79231 -0.40681,0 -1.06109,-0.38788 -1.45452,-0.86194 -0.39345,-0.47407 -1.40843,-0.86194 -2.25587,-0.86194 -1.003077,0 -2.213646,-0.69351 -3.467963,-1.98763 -1.772004,-1.82826 -2.126576,-1.96106 -4.421933,-1.64644 -2.486698,0.34084 -2.49603,0.33534 -2.49603,-1.46014 0,-1.49209 0.224978,-1.80131 1.308621,-1.80131 0.719794,0 1.831805,0.36686 2.471342,0.81479 0.639546,0.44795 2.184012,0.99102 3.432051,1.20762 9.795622,1.70002 16.785412,5.41603 18.814542,10.00322 2.27007,5.13186 9.79259,12.08518 12.11205,11.19512 0.36588,-0.1404 2.20465,1.30043 4.08636,3.20198 2.19345,2.21658 3.89238,3.45786 4.73282,3.45786 0.72099,0 1.31086,-0.2963 1.31086,-0.6588 0,-1.63043 -11.15671,-13.73085 -14.07835,-15.26914 -0.94813,-0.4992 -2.97031,-1.99641 -4.49376,-3.32656 -1.52346,-1.33013 -3.97999,-2.98773 -5.45896,-3.68456 -1.47897,-0.69683 -3.20623,-1.55858 -3.83832,-1.91468 -0.6321,-0.3561 -2.18359,-1.14529 -3.44776,-1.75306 -1.26418,-0.60777 -3.12184,-1.72241 -4.12789,-2.47695 -1.93789,-1.45343 -3.05496,-1.74454 -3.05495,-0.79684 0,0.31604 -0.40196,0.57463 -0.893372,0.57463 -1.056522,0 -7.72603,-4.42286 -7.72603,-5.12339 0,-1.42544 1.599623,-1.61381 5.458958,-0.64309 2.212307,0.55645 6.044234,1.15819 8.515014,1.33668 4.49235,0.32451 4.49163,0.32487 3.62061,-1.00448 -0.96534,-1.47328 -0.7106,-2.03587 0.92254,-2.03587 0.59807,0 0.9282,-0.25859 0.73288,-0.57463 -0.46241,-0.74819 -5.8585,-0.74819 -6.3209,0 -0.67999,1.10026 -2.60696,0.59433 -3.14698,-0.82603 -0.41359,-1.08782 -1.01822,-1.44037 -2.710402,-1.58022 -1.598413,-0.13211 -2.233278,-0.469 -2.38493,-1.26823 -0.176646,-0.93098 0.04553,-1.03958 1.528598,-0.74296 1.226289,0.24525 2.136594,0.0314 3.105454,-0.73064 2.58421,-2.03273 8.96237,-2.26213 7.30293,-0.26262 -0.37138,0.44748 -1.30746,0.81368 -2.07965,0.81368 -1.62952,0 -3.62622,0.94938 -3.62621,1.72389 0,0.97001 2.35363,1.89763 3.04934,1.20199 0.81854,-0.81855 4.50526,-0.80449 6.54872,0.0247 0.88399,0.35869 3.15864,1.35547 5.05492,2.21546 1.89627,0.85999 4.01656,1.74324 4.71149,1.96294 0.69493,0.21968 1.42289,0.90369 1.61838,1.51961 0.19549,0.61593 0.79031,1.14583 1.32209,1.17731 0.56608,0.0335 0.37871,0.22072 -0.4523,0.4523 -1.2378,0.34493 -0.9696,0.54388 2.09538,1.54879 3.38709,1.11052 3.56022,1.11435 4.78668,0.12121 0.69993,-0.56677 1.63275,-1.03028 2.0718,-1.03028 0.43905,0 0.79797,-0.24173 0.79797,-0.53648 0,-0.53721 -0.54482,-0.75091 -3.71712,-1.46349 -3.08925,-0.69395 -7.86982,-3.2463 -7.56554,-4.03922 0.39982,-1.04192 -1.45615,-2.57862 -3.1279,-2.58919 -1.80897,-0.0114 -2.64426,-0.58395 -2.91241,-1.99773 -0.1629,-0.85879 -0.89748,-1.27004 -2.93936,-1.64308 -3.00831,-0.5496 -3.23863,-0.87682 -1.63297,-2.32993 0.97606,-0.88331 1.59211,-0.91898 5.88993,-0.33557 4.19205,0.56905 10.01417,2.02324 10.8169,2.70141 0.14887,0.12579 -0.10788,0.46178 -0.57015,0.74748 -1.19647,0.73946 0.0667,1.86892 1.81368,1.62175 1.10695,-0.15662 1.41244,-0.61393 1.64643,-2.46686 0.23075,-1.82729 0.5701,-2.34956 1.72388,-2.65092 1.23082,-0.32147 1.29253,-0.43585 0.43097,-0.80245 -1.36898,-0.58251 -1.26816,-1.82594 0.17845,-2.20423 1.02717,-0.26862 1.13236,-0.60075 0.7991,-2.50951 -0.21124,-1.20981 -1.04245,-3.1764 -1.84734,-4.37031 -1.09757,-1.62804 -1.37191,-2.03574 -3.28166,-1.97527 z m 39.14532,3.37032 c -0.0493,-5.5e-4 -0.0833,0.007 -0.0999,0.0236 -0.29766,0.29767 5.13542,4.39729 6.49823,4.90341 2.27905,0.84642 7.85292,5.36817 17.27023,14.00877 2.87085,2.63407 4.69015,3.51783 4.69017,2.27831 0,-0.29452 -0.84041,-1.13148 -1.86754,-1.85969 -1.02715,-0.72819 -4.45336,-3.7572 -7.61381,-6.73053 -6.85564,-6.44975 -11.76146,-10.41125 -12.89207,-10.41175 -0.45329,-1.9e-4 -1.95281,-0.5472 -3.33328,-1.21547 -1.2079,-0.58473 -2.307,-0.9928 -2.65204,-0.99662 z m -48.16988,0.23681 c 1.25058,-0.0407 3.59803,0.8595 3.2289,1.45677 -0.4509,0.72955 -3.55317,0.64714 -4.01902,-0.10662 -0.21235,-0.34358 -0.14676,-0.86333 0.1459,-1.15599 0.12489,-0.12489 0.35562,-0.18476 0.64422,-0.19416 z m -0.0662,2.8821 c 1.06383,0.0334 1.89335,0.34238 1.89336,0.87879 0,0.28178 -1.48685,0.5028 -3.30411,0.49044 -3.3041,-0.0225 -3.30448,-0.0227 -1.37933,-0.85857 0.71712,-0.31137 1.5549,-0.47571 2.32208,-0.50728 0.15983,-0.007 0.31603,-0.008 0.468,-0.004 z m 65.81386,4.38042 c -0.17517,-0.0142 0.13748,0.33903 0.96631,1.24016 0.76503,0.83175 1.50172,1.40172 1.63746,1.26598 0.41234,-0.41234 -0.43412,-1.42884 -1.76765,-2.12231 -0.4508,-0.23443 -0.73103,-0.37531 -0.83612,-0.38383 z M 43.992801,895.7628 c -0.312453,-0.004 -0.645237,0.0304 -0.924787,0.10327 -0.559095,0.14569 -0.24108,0.27446 0.70706,0.28618 0.948135,0.0117 1.40586,-0.10746 1.01682,-0.26487 -0.194517,-0.0787 -0.48664,-0.12071 -0.799093,-0.12458 z m 77.965179,0.50168 c -0.77146,0 -1.56223,0.25859 -1.75755,0.57463 -0.20721,0.33525 0.37736,0.57463 1.4029,0.57463 0.96678,0 1.75754,-0.25859 1.75755,-0.57463 0,-0.31604 -0.63144,-0.57463 -1.4029,-0.57463 z m -59.397557,8.62838 c 1.48256,-0.005 2.855126,0.24961 3.050465,0.56566 0.461574,0.74685 -3.728662,0.74685 -4.884329,0 -0.624245,-0.40342 -0.118344,-0.55928 1.833864,-0.56566 z m 55.009287,0.69247 c -3.00762,0.033 -6.56325,0.4465 -6.75298,1.0157 -0.10666,0.31995 -1.52088,0.58137 -3.14249,0.58137 -2.59377,0 -2.84618,0.10102 -2.10323,0.84398 0.46449,0.46449 2.86202,1.14504 5.32765,1.51176 2.46561,0.36672 6.08411,1.24878 8.0414,1.96069 4.35907,1.58547 3.97059,1.51522 4.94045,0.90122 0.60375,-0.38225 0.0653,-0.88682 -2.13577,-2.00221 -1.61865,-0.82024 -3.54012,-1.49156 -4.27043,-1.49156 -1.59756,0 -4.0327,-1.59025 -3.57345,-2.3333 0.18868,-0.3053 1.19737,-0.16679 2.37819,0.32659 3.70338,1.54737 8.35847,0.73919 5.26816,-0.9147 -0.56531,-0.30254 -2.17292,-0.41934 -3.9775,-0.39954 z m 70.22119,2.16945 0.33557,2.15596 c 0.20622,1.32237 1.60265,3.93312 3.61163,6.753 1.8013,2.52835 3.97319,5.80378 4.82597,7.27823 0.85277,1.47444 3.00641,4.1249 4.78556,5.88992 1.77915,1.76501 3.45095,3.20871 3.716,3.20871 0.71169,0 -0.89089,-3.5829 -4.46234,-9.97628 -3.54719,-6.34994 -5.83161,-9.29643 -9.97853,-12.8685 z m 14.25344,0.27271 c -0.59464,-0.0931 -0.22669,0.65158 1.08192,2.17507 0.47673,0.555 0.97595,0.90054 1.10885,0.76765 0.42433,-0.42433 -0.93639,-2.49062 -1.87765,-2.8518 -0.1243,-0.0477 -0.22817,-0.0776 -0.31312,-0.0909 z m -22.07038,1.00448 c -0.0329,0.005 -0.0596,0.0169 -0.0796,0.0371 -0.18021,0.18021 1.97507,2.99783 4.79004,6.26029 2.81501,3.26246 6.03175,7.35365 7.14805,9.0919 3.70949,5.77621 6.10077,10.17296 6.48475,11.92126 0.45575,2.07503 2.85586,5.46487 4.22216,5.96399 1.49971,0.54787 1.49679,0.22938 -0.0213,-2.76314 -0.7724,-1.52255 -2.67302,-5.33978 -4.22328,-8.48361 -1.55027,-3.14381 -4.53621,-7.94712 -6.63627,-10.67324 -3.63562,-4.7194 -10.66426,-11.51855 -11.68446,-11.35448 z m -15.8359,3.32207 c -1.40712,0 -0.23702,2.41161 3.27717,6.75635 4.15769,5.14036 5.63826,5.99393 2.27381,1.31087 -1.14544,-1.59436 -2.08191,-3.09582 -2.0819,-3.33778 0,-0.78031 -2.89678,-4.72944 -3.46908,-4.72944 z m 29.34748,2.29851 c 0.478,0 2.85294,4.58341 2.85294,5.50608 0,0.91553 -1.14085,-0.12118 -2.19301,-1.99323 -1.37489,-2.44629 -1.57523,-3.51285 -0.65993,-3.51285 z M 65.769133,914.877 c -0.512785,0.0177 -0.01029,5.70755 0.718284,7.82032 0.906135,2.62774 1.754095,7.8338 1.41861,8.70806 -0.181984,0.47423 -0.06235,1.56842 0.265989,2.43206 0.923063,2.42784 1.932671,1.22938 1.581344,-1.87764 -0.184656,-1.63299 0.0083,-3.39605 0.502798,-4.5813 0.914318,-2.19132 0.36417,-3.80786 -1.298523,-3.81476 -0.770862,-0.003 -1.156782,-0.61296 -1.456766,-2.30299 -0.86329,-4.86355 -1.178071,-6.05845 -1.67899,-6.36804 -0.01868,-0.0115 -0.0362,-0.0163 -0.05276,-0.0157 z m 79.457867,1.39393 c -0.36543,-0.0256 -0.60494,0.10791 -0.60494,0.4478 0,0.58129 2.3971,3.82392 5.14023,6.95276 1.43937,1.64176 2.83601,2.99932 3.10321,3.01679 0.57135,0.0373 -2.58447,-5.75089 -4.60375,-8.44432 -0.81738,-1.09026 -2.23082,-1.91658 -3.03475,-1.97303 z m -22.61808,0.68012 c -1.12306,0 -1.11388,0.063 0.2211,1.50166 0.76619,0.82572 2.6857,2.26422 4.26593,3.19749 1.58022,0.93326 3.99243,2.58456 5.36019,3.66997 3.6412,2.88955 6.38925,2.61618 3.25921,-0.32434 -1.90884,-1.79326 -1.81236,-2.48441 0.30302,-2.17394 2.44821,0.35932 1.8958,-0.71506 -1.17169,-2.27942 -3.30398,-1.68497 -4.87053,-1.74102 -4.01566,-0.14366 0.33828,0.63209 0.48389,1.14926 0.32435,1.14926 -0.49464,0 -4.55884,-2.38116 -6.00328,-3.51735 -0.75476,-0.5937 -1.89861,-1.07967 -2.54317,-1.07967 z m -39.037584,1.18068 c -0.06605,0.0119 -0.123774,0.0407 -0.17171,0.0887 -0.129728,0.12972 0.160614,0.8029 0.645329,1.49493 1.1118,1.58731 2.242038,1.69985 1.407387,0.14029 -0.562111,-1.0503 -1.418679,-1.80774 -1.881006,-1.72388 z m -8.858453,0.80919 c -0.349902,0.11796 0.07842,1.55608 1.344535,4.97187 1.504891,4.05997 1.518411,4.21369 0.600439,6.76645 -0.620498,1.72553 -0.737372,2.73767 -0.345672,2.97976 0.407284,0.25172 0.404227,1.38255 -0.0079,3.61161 -0.594227,3.21448 -0.398705,4.96402 0.553302,4.96402 0.745532,0 1.682352,-2.04008 1.682358,-3.66325 0,-0.79223 0.224892,-1.58003 0.499431,-1.7497 0.274533,-0.16967 0.511309,1.06573 0.526364,2.74407 0.01512,1.67835 0.332163,4.1828 0.704815,5.5667 0.452644,1.681 0.545986,4.5266 0.281704,8.57226 -0.473625,7.25006 -0.476049,7.2038 0.429849,7.20978 0.533921,0.004 0.666079,1.26122 0.516263,4.90116 -0.192776,4.68374 -0.147444,4.90088 1.048245,4.99094 1.874554,0.14122 2.730828,-2.58019 3.491531,-11.10084 0.483163,-5.41188 0.491093,-7.85173 0.03028,-9.03017 -0.649586,-1.66135 -1.782239,-1.63658 -1.782239,0.0393 0,0.70704 -0.164303,0.77957 -0.656558,0.28731 -0.413293,-0.41329 -0.740538,-3.91585 -0.883263,-9.45328 -0.248642,-9.64682 -0.75579,-11.77714 -4.036978,-16.9571 -1.041408,-1.64405 -1.893356,-3.21938 -1.89335,-3.50163 0,-0.28224 -0.517164,-0.98126 -1.149253,-1.55328 -0.475291,-0.43014 -0.794933,-0.64957 -0.953972,-0.59596 z m 64.834067,0.90122 c -0.82692,0.0158 -0.80508,0.13417 0.15712,0.86194 1.24525,0.94187 2.61948,1.11583 2.61949,0.33108 0,-0.60645 -1.42458,-1.21876 -2.77661,-1.19302 z m -52.279816,2.41634 c -1.019709,0.006 -0.846654,0.8925 0.500552,2.78449 1.119361,1.572 1.150369,2.00422 0.585849,8.05037 -0.415529,4.45031 -0.411439,8.59434 0.01236,13.65525 0.334622,3.99623 0.441922,9.72318 0.239056,12.72709 -0.202889,3.0039 -0.188403,5.93099 0.03143,6.50383 0.294306,0.76694 0.568783,0.87199 1.041512,0.39954 0.644972,-0.64459 0.759782,-6.87264 0.52973,-28.74143 -0.05816,-5.53079 -0.06967,-11.01679 -0.02471,-12.19063 0.09501,-2.48018 0.06233,-2.53031 -2.01905,-3.0527 -0.362589,-0.091 -0.661424,-0.13709 -0.896728,-0.13581 z m 22.717956,1.02918 0,9.8e-4 c 0.76645,0.057 2.83179,2.44234 5.55323,6.57679 1.08648,1.65061 2.44947,2.99184 3.22554,3.17504 0.73912,0.17448 2.17369,1.52247 3.1885,2.99546 4.07367,5.91129 7.91561,10.16222 9.21984,10.20187 0.34609,0.0105 1.1013,0.54021 1.67788,1.17732 1.01496,1.12133 1.01502,1.18273 -0.005,1.92814 -0.88066,0.6438 -1.2968,0.64203 -2.53981,-0.007 -0.81751,-0.4266 -1.91356,-0.77717 -2.43543,-0.77889 -0.52186,-0.002 -1.52956,-0.97305 -2.24014,-2.15822 -1.29198,-2.15485 -1.29237,-2.15485 -1.80132,-0.43097 -0.27992,0.94813 -0.36706,2.69357 -0.19415,3.87873 0.1729,1.18517 0.074,2.15485 -0.21998,2.15485 -0.83149,0 -2.92455,-3.7142 -2.95282,-5.24009 -0.071,-3.83092 -2.48022,-9.12558 -4.15258,-9.12558 -0.59106,0 -0.4754,0.71233 0.96071,5.91799 0.50559,1.83267 0.92298,4.03062 0.92816,4.88433 0.005,0.8537 0.52211,3.98362 1.14925,6.95501 0.62713,2.97137 1.14028,5.59393 1.14028,5.82818 0,0.23426 -0.34865,0.55941 -0.77441,0.72278 -0.77475,0.2973 -1.87144,-2.56437 -4.14023,-10.80456 -0.52211,-1.89627 -1.43941,-5.0696 -2.03926,-7.05152 -1.40632,-4.64652 -1.43531,-7.02397 -0.0852,-7.03581 2.37334,-0.0207 2.50284,-0.82353 0.67787,-4.19298 -1.6881,-3.11674 -2.83273,-4.13631 -2.83272,-2.52185 0,0.41086 0.32322,1.08963 0.71828,1.50839 0.45674,0.48415 0.48267,0.68359 0.0707,0.54657 -0.9797,-0.32584 -5.96063,-6.36003 -5.96062,-7.22099 0,-0.96571 0.58164,-0.92784 1.97751,0.12794 1.61082,1.21837 2.11641,1.04286 1.70593,-0.59258 -0.24851,-0.99016 -0.16882,-1.44562 0.17957,-1.41973 z m -27.73023,1.19976 c -0.166165,0.0344 -0.259535,0.23846 -0.249158,0.65206 0.01672,0.66648 2.506436,5.97367 3.693552,7.87306 0.86872,1.38997 1.052957,-0.29963 0.294048,-2.69693 -0.931809,-2.94349 -3.018412,-5.97713 -3.738442,-5.82819 z m -9.454409,1.19638 c -0.317211,0.004 -0.581356,0.46596 -0.581356,1.46688 0,0.9218 0.172009,1.84875 0.382707,2.05945 0.878663,0.87866 1.402073,0.26657 1.233431,-1.44106 -0.132089,-1.33746 -0.626935,-2.09 -1.034782,-2.08527 z m 71.484919,4.48367 c -0.63215,0 -0.65855,0.28433 -0.13355,1.43657 0.64059,1.40596 1.6195,1.95546 1.6195,0.90907 0,-1.17223 -0.74342,-2.34564 -1.48595,-2.34564 z m -71.176281,1.14925 c -0.706802,0 -0.89,0.72184 -0.889994,3.49602 0,4.64184 1.360872,4.44034 1.608277,-0.23794 0.139313,-2.63429 0.0017,-3.25808 -0.718283,-3.25808 z m 118.836631,4.59702 c -0.74427,0 -1.35351,0.15525 -1.35351,0.34455 0,0.18929 1.55974,2.414 3.46684,4.94493 1.90711,2.53091 3.99483,5.63487 4.63854,6.89664 0.6437,1.26177 2.13894,3.36718 3.32319,4.67895 1.18424,1.31177 2.78242,3.28996 3.551,4.39612 1.29995,1.87088 1.41009,1.92104 1.58136,0.71491 0.6142,-4.32564 -11.59977,-21.9761 -15.20742,-21.9761 z m -123.056547,0.24353 c -0.03798,0.005 -0.0771,0.0186 -0.117838,0.0438 -0.316051,0.19533 -0.574627,0.85679 -0.574627,1.47023 0,0.61344 0.258582,1.11559 0.574627,1.11559 0.316044,0 0.574626,-0.66148 0.574626,-1.47024 0,-0.72974 -0.190851,-1.19048 -0.456788,-1.15936 z m 110.507887,11.97177 c 0.54621,0.071 2.55124,3.10207 3.48255,5.33101 1.27984,3.06307 0.76403,3.36587 -1.02131,0.59932 -1.67622,-2.59748 -2.93711,-5.51731 -2.5499,-5.90452 0.0227,-0.0227 0.0522,-0.0306 0.0887,-0.0258 z m -18.00086,3.38716 c 0.5201,-0.0262 2.33892,1.57917 4.87648,4.57569 1.70871,2.01777 3.24998,4.31532 3.42531,5.10543 0.17533,0.79011 1.19826,3.15531 2.27381,5.25582 1.07558,2.1005 1.9562,4.10451 1.95621,4.45335 0,0.34884 -0.19394,0.6303 -0.43097,0.62513 -0.74345,-0.0163 -6.23597,-8.17534 -7.73053,-11.48356 -0.7853,-1.73824 -2.11451,-4.16683 -2.95394,-5.3961 -1.43988,-2.10855 -1.8209,-3.11537 -1.41637,-3.13576 z m -5.79902,2.27269 c 0.50552,0.0707 1.09203,0.72214 1.09203,1.40852 0,0.45541 -0.26664,0.82827 -0.5926,0.82827 -0.68793,0 -1.42555,-1.62042 -0.95285,-2.09313 0.12581,-0.1258 0.28492,-0.16721 0.45342,-0.14366 z m -27.07479,0.51291 c 0.74041,0 6.90562,9.51278 6.90562,10.65528 0,0.1945 -0.77575,0.18358 -1.72388,-0.0247 -1.46739,-0.32229 -1.72388,-0.20807 -1.72388,0.77103 0,0.63263 0.89692,2.26967 1.99323,3.63743 1.09634,1.36776 2.3984,3.20257 2.89334,4.07738 0.80681,1.426 0.80877,1.62583 0.0179,1.92927 -1.18016,0.45287 -1.11585,1.4194 0.40964,6.15591 0.84718,2.63038 1.63966,4.10116 2.30413,4.27491 1.20727,0.31571 1.54414,1.52041 1.76315,6.30518 0.19675,4.29836 -0.37144,4.52821 -2.93822,1.18854 -1.4375,-1.87035 -1.84622,-2.96519 -1.84622,-4.93932 0,-1.59854 -0.41651,-3.1214 -1.12681,-4.11891 -1.47808,-2.07578 -2.24074,-5.63702 -1.66439,-7.77093 0.62029,-2.29657 -0.70393,-4.32643 -2.82488,-4.33102 -0.86183,-0.002 -2.30794,-0.38982 -3.21319,-0.86194 -2.40824,-1.25599 -4.57882,-1.05835 -6.34447,0.57799 -1.89596,1.75711 -1.85979,1.75587 -2.29064,0.0393 -0.59768,-2.38132 0.50402,-4.24147 2.76425,-4.66548 2.99236,-0.56136 3.41688,-1.36297 2.65766,-5.02013 -0.42941,-2.06843 -0.45591,-3.58418 -0.0819,-4.56783 0.61688,-1.62252 2.69243,-3.31196 4.06953,-3.31196 z m 58.18993,4.02238 c 1.34901,0 1.97993,0.5825 3.88884,3.59142 2.46408,3.88403 2.62933,4.49855 1.63634,6.08857 -0.49654,0.7951 -0.43727,2.20416 0.24578,5.88208 0.49403,2.6601 0.68427,5.05692 0.42312,5.32539 -0.53952,0.55468 -2.88532,-3.24057 -4.38602,-7.09641 -0.55352,-1.4222 -1.39154,-3.18931 -1.86305,-3.927 -0.4715,-0.73766 -1.01478,-3.25884 -1.20649,-5.60261 -0.34856,-4.26138 -0.34868,-4.26144 1.26148,-4.26144 z m -106.659477,4.26144 c -0.212859,0.0421 -0.363629,0.37831 -0.363629,0.87654 0,0.65074 0.258582,1.18292 0.574627,1.18292 0.316044,0 0.574626,-0.37286 0.574626,-0.82827 0,-0.45541 -0.258588,-0.9876 -0.574626,-1.18293 -0.03948,-0.0244 -0.07829,-0.0399 -0.115604,-0.0471 -0.03264,-0.006 -0.06499,-0.007 -0.0954,-9.8e-4 z m 123.864617,0.16723 c -0.1996,0.0517 0.0498,1.14572 0.81705,2.91579 0.50934,1.17501 1.02989,1.86701 1.15711,1.53756 0.12722,-0.32943 -0.27951,-1.62234 -0.90347,-2.87313 -0.51151,-1.02536 -0.85882,-1.51893 -1.02468,-1.57573 -0.0172,-0.006 -0.0327,-0.008 -0.046,-0.005 z m -110.67738,3.83497 c -0.194223,0.0396 -0.33445,0.70748 -0.33445,2.1425 0,2.5063 -1.219639,5.24537 -1.865296,4.18961 -0.174239,-0.28491 -0.621051,-1.64912 -0.992128,-3.03251 -0.375104,-1.39842 -0.890108,-2.29144 -1.160476,-2.01119 -0.771344,0.79951 -1.829893,6.87477 -2.340035,13.43302 -1.243096,15.98102 -1.277947,16.83491 -0.685737,16.46889 0.327572,-0.20244 0.760662,-1.02789 0.962948,-1.83385 0.771471,-3.0738 2.738206,-7.73951 3.262582,-7.73951 0.546068,0 0.366118,6.90865 -0.314252,12.06722 -0.517899,3.9266 0.48822,1.2165 1.961816,-5.28506 0.694575,-3.0645 1.767621,-6.55536 2.384924,-7.75746 1.160594,-2.26008 1.17445,-3.80469 0.145897,-16.26351 -0.228435,-2.76706 -0.702083,-4.44418 -1.025793,-4.37815 z m 46.62894,2.67223 c 0.29642,0.0497 0.89136,0.67406 1.52411,1.7452 0.57299,0.97002 0.92931,1.87648 0.79123,2.01457 -0.33501,0.33502 -1.89373,-1.5105 -2.34116,-2.77213 -0.25419,-0.71679 -0.20472,-1.02628 0.0258,-0.98764 z m -16.20066,6.30294 c 0.63492,0 0.83688,0.74123 0.82154,3.01679 -0.0112,1.65923 -0.38024,3.66325 -0.8193,4.45335 -0.79827,1.43657 -0.79844,1.43694 -1.41636,-0.18069 -1.22361,-3.20322 -0.43065,-7.28945 1.41412,-7.28945 z m 84.36577,3.0976 c 0.16169,-0.004 0.44348,0.16342 0.92478,0.50055 0.62048,0.43459 1.67339,1.48353 2.34003,2.33106 1.19562,1.51994 1.19649,1.54093 0.0629,1.54093 -1.23401,0 -3.53081,-2.50133 -3.53081,-3.84505 0,-0.34861 0.0414,-0.52364 0.20314,-0.52749 z m -27.59781,0.92478 c 0.15343,0 0.67589,1.16362 1.16048,2.58582 0.91923,2.6978 0.90691,3.06995 -0.0617,1.86754 -0.63891,-0.7931 -1.54205,-4.45336 -1.09876,-4.45336 z m 10.69345,2.87314 c 1.76867,0 6.77378,9.76278 8.65419,16.88078 0.65771,2.48971 1.08261,4.64011 0.94388,4.77881 -0.36008,0.36 -0.52281,0.023 -3.4343,-7.10874 -1.4423,-3.53263 -3.54322,-8.25175 -4.66884,-10.48694 -1.12563,-2.2352 -1.79887,-4.06391 -1.49493,-4.06391 z m -78.49604,2.06057 c 0.18957,-0.0333 0.52522,0.18994 0.97754,0.73287 0.62158,0.74612 1.13017,1.58651 1.13017,1.86754 0,0.92127 -1.09599,0.53503 -1.70368,-0.60044 -0.63032,-1.17778 -0.71998,-1.94453 -0.40403,-1.99997 z m 96.07154,1.101 c 0.23516,-0.0569 0.63357,0.34142 1.14364,1.15936 0.58724,0.94167 1.57776,2.29039 2.20199,2.99659 0.88006,0.99562 1.00973,1.56523 0.57687,2.53531 -0.53315,1.19483 -0.5934,1.16303 -1.35239,-0.7093 -0.43708,-1.07823 -1.29179,-2.64654 -1.89896,-3.48481 -0.60718,-0.83826 -0.98942,-1.86783 -0.8496,-2.28728 0.0405,-0.12144 0.10006,-0.19091 0.17845,-0.20987 z m -24.86383,3.90342 c 0.1352,-0.0396 0.39485,0.19682 0.77664,0.69247 1.59483,2.07042 3.99294,7.39773 5.04369,11.20523 0.56694,2.0543 1.5257,5.4226 2.13017,7.4858 0.60448,2.0632 1.10312,4.2612 1.10773,4.8844 0.007,0.8789 0.12233,0.9532 0.51626,0.331 0.39049,-0.6167 0.73023,-0.3716 1.47024,1.0595 1.1193,2.1645 0.8184,2.9711 -0.43883,1.1762 -0.61075,-0.872 -0.93715,-1.0073 -1.12905,-0.4681 -0.43739,1.2292 -0.84101,0.4531 -2.90119,-5.5824 -1.07506,-3.1494 -3.02714,-8.7964 -4.33776,-12.54965 -1.92576,-5.51481 -2.64351,-8.11556 -2.2379,-8.23445 z m -63.30435,1.68573 c 0.1604,-0.007 0.32261,0.0306 0.47474,0.12457 0.34358,0.21235 0.62514,0.75893 0.62514,1.21435 0,0.96745 -1.47937,1.11451 -2.04263,0.20314 -0.40743,-0.65925 0.24769,-1.51369 0.94275,-1.54206 z m 90.96724,4.02126 c 0.10135,0.0227 0.46407,0.41376 1.17619,1.19414 0.80918,0.88675 1.47135,1.85643 1.47136,2.15485 0,1.20951 -1.11904,0.0546 -2.25698,-2.32993 -0.33183,-0.69533 -0.49192,-1.04173 -0.39057,-1.01906 z m -40.09369,1.27495 c 0.59066,0.15066 1.97762,2.62973 4.64416,8.12216 2.04309,4.2083 3.62722,8.1088 3.51958,8.6676 -0.16719,0.8683 -0.36282,0.798 -1.34117,-0.4803 -0.99152,-1.2955 -3.08473,-4.5097 -4.80014,-7.3713 -0.8575,-1.4305 -2.38444,-6.5181 -2.38156,-7.93481 9.8e-4,-0.60197 0.0784,-0.94652 0.25139,-1.00223 0.0324,-0.0104 0.0684,-0.0111 0.10774,-9.9e-4 z m -28.30598,3.95056 c 0.39671,-0.013 1.31049,1.0142 2.26821,2.6453 0.57094,0.9724 0.78263,1.7676 0.47025,1.7676 -0.70005,0 -2.94497,-3.0781 -2.94497,-4.038 0,-0.251 0.0743,-0.3707 0.20651,-0.3749 z m -36.61001,2.8046 c 0.12935,-0.034 0.17676,0.1346 0.18405,0.4927 0.0101,0.4928 -0.36199,1.3978 -0.82602,2.0113 -0.67448,0.8917 -0.84735,0.936 -0.86194,0.2199 -0.0101,-0.4926 0.36201,-1.3978 0.82602,-2.0112 0.33725,-0.4459 0.54854,-0.6797 0.67789,-0.7127 z m 115.24297,1.697 c 1.23405,-0.093 3.80697,1.7389 7.03469,5.0246 1.87819,1.912 3.27475,3.6152 3.10433,3.7856 -0.1704,0.1704 -2.70958,-1.6868 -5.643,-4.1268 -2.93344,-2.4399 -5.05894,-4.5268 -4.72385,-4.6386 0.0702,-0.024 0.14557,-0.038 0.22783,-0.044 z m -122.155323,1.2761 c 0.166761,-0.014 0.291578,0.2934 0.429843,0.964 0.73313,3.5553 0.83261,9.0108 0.18743,10.2805 -0.691364,1.3605 -2.866014,2.5446 -3.502752,1.9079 -0.780466,-0.7805 -0.251772,-4.4263 1.111091,-7.6643 0.800059,-1.9008 1.334529,-3.6508 1.187419,-3.8888 -0.147119,-0.238 -0.04454,-0.7954 0.228948,-1.2379 0.142221,-0.2302 0.257971,-0.3533 0.358021,-0.3614 z m 104.823373,5.5307 c 0.81327,0 5.13243,4.7067 5.14134,5.6026 0.0149,1.4926 -2.07571,0.1069 -4.45112,-2.9505 -1.40168,-1.8041 -1.62233,-2.6521 -0.69022,-2.6521 z m -84.68002,1.7239 c 1.45296,0 0.74972,2.6414 -1.6801,6.3097 -3.0759,4.6436 -4.16959,5.1541 -3.58132,1.6723 0.5903,-3.494 3.5488,-7.982 5.26142,-7.982 z m -8.1267,1.2906 c 0.0236,0 0.0443,0.018 0.0629,0.036 0.15628,0.1563 -0.41599,2.2554 -1.27158,4.6655 -1.74886,4.9262 -2.54667,5.8987 -2.53869,3.092 0.005,-1.763 3.01727,-7.9502 3.74742,-7.7933 z m -18.329691,3.3636 c 0.175055,0.063 0.231627,1.9392 0.124574,4.3704 -0.11419,2.5933 -0.464539,4.9598 -0.778883,5.2592 -0.366354,0.3488 -1.134113,-0.036 -2.139141,-1.0741 -1.567898,-1.6186 -1.567909,-1.6193 0.409646,-4.9034 1.087654,-1.8063 2.143541,-3.4436 2.346764,-3.6396 0.0127,-0.012 0.02546,-0.017 0.03707,-0.012 z m 10.838221,0.6252 c 0.30205,-0.054 0.3408,0.7689 0.14703,2.4882 -0.22452,1.9919 -0.08,2.7149 0.62176,3.1077 0.81196,0.4544 0.82858,0.8564 0.14366,3.5813 -0.42433,1.6881 -1.51339,4.4918 -2.41972,6.23 -0.90633,1.7382 -1.65333,3.419 -1.66103,3.7351 -0.008,0.3161 -0.54017,1.2211 -1.182928,2.0112 -1.168645,1.4366 -1.169167,1.4366 -0.80133,-1.1493 0.481163,-3.3825 1.663338,-7.459 2.799058,-9.6553 0.63146,-1.2211 0.80297,-2.5313 0.56228,-4.2873 -0.24411,-1.7809 -0.0684,-3.0664 0.59482,-4.349 0.56722,-1.0968 0.96148,-1.6702 1.1964,-1.7126 z m 22.09283,0.4669 c 1.61867,0 1.39519,1.9003 -0.26038,2.2143 -1.31757,0.2499 -1.98295,1.0928 -1.99548,2.5264 -0.0109,1.245 2.02945,1.3625 2.49715,0.1437 0.18192,-0.4742 0.727,-0.862 1.21099,-0.862 0.91352,0 1.22045,2.4655 0.53085,4.2625 -0.49269,1.2841 -1.37485,1.1299 -1.37483,-0.2402 0,-1.1896 -1.3863,-1.5857 -2.0112,-0.5745 -0.55171,0.8927 -1.32986,0.6786 -1.56676,-0.431 -0.16552,-0.7753 -0.43752,-0.5869 -1.18741,0.8249 -0.53494,1.0071 -0.82556,2.2161 -0.64533,2.6857 0.18022,0.4697 -0.2099,1.3905 -0.86643,2.0471 -1.70865,1.7086 -2.34228,1.4826 -2.34228,-0.8361 0,-4.0112 5.27882,-11.7608 8.01111,-11.7608 z"
       style="opacity:0.65899999;fill:#643814;fill-opacity:1" />
  </g>
</svg>
